<mxfile host="Electron" modified="2023-08-12T09:17:16.545Z" agent="Mozilla/5.0 (X11; Linux x86_64) AppleWebKit/537.36 (KHTML, like Gecko) draw.io/21.6.5 Chrome/114.0.5735.134 Electron/25.3.2 Safari/537.36" etag="BSRAhePGWItdm2mRw1U6" version="21.6.5" type="device">
  <diagram name="Page-1" id="txDY4BDr1NfvWxJQTQll">
    <mxGraphModel dx="2803" dy="1961" grid="1" gridSize="10" guides="1" tooltips="1" connect="1" arrows="1" fold="1" page="0" pageScale="1" pageWidth="1169" pageHeight="1654" background="none" math="0" shadow="0">
      <root>
        <mxCell id="0" />
        <mxCell id="1" parent="0" />
        <mxCell id="jRGV8-mMHsfEP5IWuwoS-2" value="" style="ellipse;whiteSpace=wrap;html=1;fillColor=#0050ef;fontColor=#ffffff;strokeColor=#001DBC;" vertex="1" parent="1">
          <mxGeometry x="20" y="50" width="760" height="760" as="geometry" />
        </mxCell>
        <mxCell id="jRGV8-mMHsfEP5IWuwoS-1" value="" style="ellipse;whiteSpace=wrap;html=1;fillColor=#1ba1e2;fontColor=#ffffff;strokeColor=#006EAF;" vertex="1" parent="1">
          <mxGeometry x="172.5" y="202.5" width="455" height="455" as="geometry" />
        </mxCell>
        <mxCell id="y5y_J3sVo0vX5Waw7YzY-4" value="" style="ellipse;whiteSpace=wrap;html=1;fillColor=#60a917;fontColor=#ffffff;strokeColor=#2D7600;" parent="1" vertex="1">
          <mxGeometry x="310" y="340" width="180" height="180" as="geometry" />
        </mxCell>
        <mxCell id="y5y_J3sVo0vX5Waw7YzY-1" value="Domain" style="rounded=1;whiteSpace=wrap;html=1;" parent="1" vertex="1">
          <mxGeometry x="340" y="400" width="120" height="60" as="geometry" />
        </mxCell>
        <mxCell id="jRGV8-mMHsfEP5IWuwoS-10" style="edgeStyle=orthogonalEdgeStyle;rounded=0;orthogonalLoop=1;jettySize=auto;html=1;exitX=1;exitY=0.5;exitDx=0;exitDy=0;entryX=0;entryY=0.5;entryDx=0;entryDy=0;" edge="1" parent="1" source="y5y_J3sVo0vX5Waw7YzY-2" target="jRGV8-mMHsfEP5IWuwoS-3">
          <mxGeometry relative="1" as="geometry" />
        </mxCell>
        <mxCell id="jRGV8-mMHsfEP5IWuwoS-11" style="edgeStyle=orthogonalEdgeStyle;rounded=0;orthogonalLoop=1;jettySize=auto;html=1;exitX=0.5;exitY=1;exitDx=0;exitDy=0;entryX=0.5;entryY=0;entryDx=0;entryDy=0;" edge="1" parent="1" source="y5y_J3sVo0vX5Waw7YzY-2" target="y5y_J3sVo0vX5Waw7YzY-1">
          <mxGeometry relative="1" as="geometry" />
        </mxCell>
        <mxCell id="jRGV8-mMHsfEP5IWuwoS-13" style="edgeStyle=orthogonalEdgeStyle;rounded=0;orthogonalLoop=1;jettySize=auto;html=1;exitX=1;exitY=0.75;exitDx=0;exitDy=0;entryX=0;entryY=0.5;entryDx=0;entryDy=0;" edge="1" parent="1" source="y5y_J3sVo0vX5Waw7YzY-2" target="jRGV8-mMHsfEP5IWuwoS-12">
          <mxGeometry relative="1" as="geometry" />
        </mxCell>
        <mxCell id="jRGV8-mMHsfEP5IWuwoS-15" style="edgeStyle=orthogonalEdgeStyle;rounded=0;orthogonalLoop=1;jettySize=auto;html=1;exitX=0.25;exitY=1;exitDx=0;exitDy=0;entryX=0.5;entryY=0;entryDx=0;entryDy=0;" edge="1" parent="1" source="y5y_J3sVo0vX5Waw7YzY-2" target="jRGV8-mMHsfEP5IWuwoS-14">
          <mxGeometry relative="1" as="geometry">
            <mxPoint x="340" y="310" as="sourcePoint" />
            <mxPoint x="410" y="690" as="targetPoint" />
            <Array as="points">
              <mxPoint x="370" y="310" />
              <mxPoint x="240" y="310" />
              <mxPoint x="240" y="570" />
              <mxPoint x="400" y="570" />
            </Array>
          </mxGeometry>
        </mxCell>
        <mxCell id="y5y_J3sVo0vX5Waw7YzY-2" value="Services" style="rounded=1;whiteSpace=wrap;html=1;" parent="1" vertex="1">
          <mxGeometry x="340" y="240" width="120" height="60" as="geometry" />
        </mxCell>
        <mxCell id="jRGV8-mMHsfEP5IWuwoS-8" style="edgeStyle=orthogonalEdgeStyle;rounded=0;orthogonalLoop=1;jettySize=auto;html=1;exitX=0.5;exitY=1;exitDx=0;exitDy=0;entryX=0.5;entryY=0;entryDx=0;entryDy=0;" edge="1" parent="1" source="y5y_J3sVo0vX5Waw7YzY-3" target="y5y_J3sVo0vX5Waw7YzY-2">
          <mxGeometry relative="1" as="geometry" />
        </mxCell>
        <mxCell id="y5y_J3sVo0vX5Waw7YzY-3" value="API" style="rounded=1;whiteSpace=wrap;html=1;shadow=0;glass=0;" parent="1" vertex="1">
          <mxGeometry x="340" y="100" width="120" height="60" as="geometry" />
        </mxCell>
        <mxCell id="jRGV8-mMHsfEP5IWuwoS-3" value="FileGenerators" style="rounded=1;whiteSpace=wrap;html=1;" vertex="1" parent="1">
          <mxGeometry x="580" y="210" width="120" height="60" as="geometry" />
        </mxCell>
        <mxCell id="jRGV8-mMHsfEP5IWuwoS-7" style="edgeStyle=orthogonalEdgeStyle;rounded=0;orthogonalLoop=1;jettySize=auto;html=1;exitX=1;exitY=0.75;exitDx=0;exitDy=0;entryX=0;entryY=0.5;entryDx=0;entryDy=0;" edge="1" parent="1" source="jRGV8-mMHsfEP5IWuwoS-5" target="y5y_J3sVo0vX5Waw7YzY-2">
          <mxGeometry relative="1" as="geometry" />
        </mxCell>
        <mxCell id="jRGV8-mMHsfEP5IWuwoS-5" value="SignalRHub" style="rounded=1;whiteSpace=wrap;html=1;" vertex="1" parent="1">
          <mxGeometry x="100" y="210" width="120" height="60" as="geometry" />
        </mxCell>
        <mxCell id="jRGV8-mMHsfEP5IWuwoS-12" value="FileLoaders" style="rounded=1;whiteSpace=wrap;html=1;" vertex="1" parent="1">
          <mxGeometry x="650" y="400" width="120" height="60" as="geometry" />
        </mxCell>
        <mxCell id="jRGV8-mMHsfEP5IWuwoS-14" value="Database" style="rounded=1;whiteSpace=wrap;html=1;" vertex="1" parent="1">
          <mxGeometry x="340" y="710" width="120" height="60" as="geometry" />
        </mxCell>
        <mxCell id="jRGV8-mMHsfEP5IWuwoS-17" style="edgeStyle=orthogonalEdgeStyle;rounded=0;orthogonalLoop=1;jettySize=auto;html=1;exitX=0.5;exitY=1;exitDx=0;exitDy=0;entryX=0;entryY=0.5;entryDx=0;entryDy=0;" edge="1" parent="1" source="jRGV8-mMHsfEP5IWuwoS-16" target="jRGV8-mMHsfEP5IWuwoS-5">
          <mxGeometry relative="1" as="geometry" />
        </mxCell>
        <mxCell id="jRGV8-mMHsfEP5IWuwoS-18" style="edgeStyle=orthogonalEdgeStyle;rounded=0;orthogonalLoop=1;jettySize=auto;html=1;exitX=1;exitY=0.5;exitDx=0;exitDy=0;entryX=0.5;entryY=0;entryDx=0;entryDy=0;" edge="1" parent="1" source="jRGV8-mMHsfEP5IWuwoS-16" target="y5y_J3sVo0vX5Waw7YzY-3">
          <mxGeometry relative="1" as="geometry" />
        </mxCell>
        <mxCell id="jRGV8-mMHsfEP5IWuwoS-16" value="Client&lt;br&gt;Application" style="whiteSpace=wrap;html=1;aspect=fixed;" vertex="1" parent="1">
          <mxGeometry x="-410" y="-580" width="360" height="360" as="geometry" />
        </mxCell>
      </root>
    </mxGraphModel>
  </diagram>
</mxfile>
